<svg xmlns="http://www.w3.org/2000/svg" width="19" height="19" viewBox="0 0 19 19" fill="none">
<g clip-path="url(#clip0_180_225)">
<path d="M9.5 0C4.24936 0 0 4.24888 0 9.5C0 14.7506 4.24888 19 9.5 19C14.7506 19 19 14.7511 19 9.5C19 4.24936 14.7511 0 9.5 0ZM9.5 17.6744C4.99262 17.6744 1.32558 14.0074 1.32558 9.5C1.32558 4.99258 4.99262 1.32558 9.5 1.32558C14.0074 1.32558 17.6744 4.99258 17.6744 9.5C17.6744 14.0074 14.0074 17.6744 9.5 17.6744Z" fill="black"/>
<path d="M9.2189 12.0206C8.69369 12.0206 8.26853 12.4583 8.26853 12.9834C8.26853 13.4962 8.68118 13.9464 9.2189 13.9464C9.75661 13.9464 10.1817 13.4962 10.1817 12.9834C10.1817 12.4583 9.74407 12.0206 9.2189 12.0206ZM9.38144 4.73029C7.69326 4.73029 6.91797 5.73072 6.91797 6.40596C6.91797 6.89365 7.33063 7.11876 7.66825 7.11876C8.34353 7.11876 8.06843 6.15584 9.34392 6.15584C9.96914 6.15584 10.4694 6.43097 10.4694 7.0062C10.4694 7.68145 9.76908 8.06909 9.35643 8.41922C8.99376 8.73179 8.51861 9.24453 8.51861 10.32C8.51861 10.9702 8.69369 11.1578 9.20636 11.1578C9.81907 11.1578 9.94413 10.8827 9.94413 10.645C9.94413 9.99481 9.95663 9.61967 10.6444 9.08195C10.982 8.81937 12.0449 7.96901 12.0449 6.79357C12.0449 5.61813 10.982 4.73029 9.38144 4.73029Z" fill="black"/>
</g>
<defs>
<clipPath id="clip0_180_225">
<rect width="19" height="19" fill="white"/>
</clipPath>
</defs>
</svg>