<svg width="11" height="14" viewBox="0 0 11 14" fill="none" xmlns="http://www.w3.org/2000/svg">
<path fill-rule="evenodd" clip-rule="evenodd" d="M0.44471 2.93288C0.214329 3.17555 0.204991 3.57934 0.423853 3.83477L3.11601 6.97681L0.423853 10.1189C0.204991 10.3743 0.214329 10.7781 0.44471 11.0207C0.675091 11.2634 1.03927 11.2531 1.25814 10.9976L4.32677 7.4162C4.53773 7.16997 4.53773 6.78366 4.32677 6.53743L1.25814 2.95601C1.03927 2.70057 0.675091 2.69022 0.44471 2.93288Z" fill="#1D1D1B"/>
<path fill-rule="evenodd" clip-rule="evenodd" d="M3.40694 0.290084C2.98457 0.691331 2.96745 1.359 3.3687 1.78137L8.30432 6.97676L3.3687 12.1722C2.96745 12.5945 2.98457 13.2622 3.40694 13.6634C3.8293 14.0647 4.49697 14.0476 4.89822 13.6252L10.524 7.70328C10.9108 7.29615 10.9108 6.65737 10.524 6.25024L4.89822 0.328322C4.49697 -0.0940429 3.8293 -0.111163 3.40694 0.290084Z" fill="#1D1D1B"/>
</svg>
