<svg width="26" height="25" viewBox="0 0 26 25" fill="none" xmlns="http://www.w3.org/2000/svg">
<g id="Layer_1" clip-path="url(#clip0_438_305)">
<path id="Vector" d="M26.0513 10.4487C26.0513 7.85724 23.9424 5.74832 21.3509 5.74832H18.7396V3.13698C18.7396 1.69761 17.5686 0.525635 16.1282 0.525635H3.59377C2.15335 0.525635 0.982422 1.69761 0.982422 3.13698V19.3273H3.25951C3.13835 19.6616 3.0715 20.0115 3.0715 20.3718C3.0715 22.0995 4.47744 23.5055 6.20511 23.5055C7.93277 23.5055 9.33872 22.0995 9.33872 20.3718C9.33872 20.0115 9.27187 19.6616 9.1507 19.3273H17.882C17.7608 19.6616 17.694 20.0115 17.694 20.3718C17.694 22.0995 19.0999 23.5055 20.8276 23.5055C22.5553 23.5055 23.9612 22.0995 23.9612 20.3718C23.9612 20.0115 23.8944 19.6616 23.7732 19.3273H26.0503L26.0513 10.4487ZM21.3509 6.79286C23.3669 6.79286 25.0068 8.43278 25.0068 10.4487V12.0155H18.7396V6.79286H21.3509ZM8.29418 20.3718C8.29418 21.524 7.35723 22.4609 6.20511 22.4609C5.05298 22.4609 4.11603 21.524 4.11603 20.3718C4.11603 20.001 4.24033 19.6501 4.43357 19.3273H7.97664C8.16988 19.6501 8.29418 20.001 8.29418 20.3718ZM17.695 18.2828H2.02696V3.13698C2.02696 2.27315 2.72993 1.57017 3.59377 1.57017H16.1282C16.992 1.57017 17.695 2.27315 17.695 3.13698V18.2828ZM22.9177 20.3718C22.9177 21.524 21.9808 22.4609 20.8286 22.4609C19.6765 22.4609 18.7396 21.524 18.7396 20.3718C18.7396 20.001 18.8639 19.6501 19.0571 19.3273H22.6002C22.7934 19.6501 22.9177 20.001 22.9177 20.3718ZM18.7396 18.2828V13.0601H25.0068V18.2828H18.7396ZM14.7181 6.42832L15.4566 7.1668L10.0229 12.6015C9.71684 12.9065 9.31574 13.0601 8.91359 13.0601C8.51145 13.0601 8.11139 12.9076 7.80534 12.6015L4.26227 9.28095L4.97673 8.51948L8.53129 11.8516C8.74542 12.0657 9.07654 12.0678 9.28336 11.863L14.7181 6.42832Z" fill="black"/>
</g>
<defs>
<clipPath id="clip0_438_305">
<rect width="24.9781" height="23.9789" fill="white" transform="translate(0.982422 0.525635)"/>
</clipPath>
</defs>
</svg>
