<svg width="60" height="59" viewBox="0 0 60 59" fill="none" xmlns="http://www.w3.org/2000/svg">
<path d="M4.68652 42.71V54.3519C4.68652 55.3811 5.09537 56.3681 5.82313 57.0959C6.55089 57.8236 7.53794 58.2325 8.56714 58.2325H31.8509C32.8801 58.2325 33.8671 57.8236 34.5949 57.0959C35.3226 56.3681 35.7315 55.3811 35.7315 54.3519V3.90381C35.7315 2.87461 35.3226 1.88756 34.5949 1.1598C33.8671 0.432043 32.8801 0.0231934 31.8509 0.0231934H8.56714C7.53794 0.0231934 6.55089 0.432043 5.82313 1.1598C5.09537 1.88756 4.68652 2.87461 4.68652 3.90381V42.71Z" fill="#2B2E33"/>
<path d="M31.8509 0.993408H8.5672C6.9598 0.993408 5.65674 2.29647 5.65674 3.90387V54.3519C5.65674 55.9593 6.9598 57.2624 8.5672 57.2624H31.8509C33.4583 57.2624 34.7614 55.9593 34.7614 54.3519V3.90387C34.7614 2.29647 33.4583 0.993408 31.8509 0.993408Z" fill="#EAEBEF"/>
<path d="M31.8507 0.993409H12.5524C11.7548 0.993409 10.9898 1.31027 10.4258 1.87428C9.86178 2.43829 9.54492 3.20326 9.54492 4.00089V42.1833C9.54518 44.6375 10.5197 46.9911 12.2545 48.7271C13.9892 50.4631 16.3422 51.4394 18.7963 51.4415H30.0501C30.6691 51.4415 31.2821 51.3195 31.8539 51.0826C32.4258 50.8457 32.9454 50.4985 33.3831 50.0607C33.8207 49.623 34.1679 49.1033 34.4047 48.5314C34.6414 47.9595 34.7633 47.3465 34.7631 46.7275V3.90387C34.7631 3.5215 34.6878 3.14288 34.5414 2.78964C34.395 2.4364 34.1805 2.11547 33.91 1.84518C33.6395 1.57489 33.3184 1.36055 32.9651 1.2144C32.6118 1.06825 32.2331 0.993154 31.8507 0.993409Z" fill="#F6F8FF"/>
<path d="M12.4468 0.0231934L13.4169 3.90381H26.9991L27.9693 0.0231934H12.4468Z" fill="#2B2E33"/>
<path d="M2.74647 5.84412L0.822653 16.5255C0.784245 17.1468 0.873457 17.7694 1.08479 18.3549C1.29613 18.9404 1.62512 19.4765 2.05148 19.93C2.47785 20.3836 2.99256 20.745 3.56392 20.9921C4.13527 21.2391 4.75116 21.3666 5.37365 21.3666C6.10714 21.3674 6.82995 21.1908 7.48047 20.8519C8.13099 20.5131 8.68995 20.022 9.10972 19.4205H31.4233C31.8427 20.0219 32.4013 20.513 33.0515 20.8518C33.7017 21.1907 34.4242 21.3673 35.1574 21.3666C35.7797 21.3662 36.3952 21.2384 36.9662 20.9912C37.5372 20.744 38.0516 20.3825 38.4777 19.929C38.9037 19.4755 39.2324 18.9396 39.4436 18.3542C39.6548 17.7689 39.7439 17.1466 39.7055 16.5255L37.6798 5.84412H2.74647Z" fill="#FFC239"/>
<path d="M36.5435 17.486C36.0927 17.4908 35.6467 17.3925 35.2398 17.1984C34.8329 17.0043 34.4757 16.7198 34.1957 16.3664C33.9881 16.1052 33.7235 15.895 33.4222 15.7517C33.1209 15.6085 32.7908 15.536 32.4572 15.5398H8.05101C7.71738 15.5359 7.38728 15.6084 7.08595 15.7516C6.78463 15.8949 6.52006 16.1052 6.31249 16.3664C6.03219 16.7197 5.67485 17.0042 5.26778 17.1982C4.86071 17.3923 4.41468 17.4907 3.96375 17.486C3.18712 17.4949 2.43805 17.1984 1.87792 16.6604C1.63397 16.4182 1.44385 16.1273 1.31997 15.8067C1.1961 15.4861 1.14126 15.1429 1.15903 14.7996L2.7462 5.84412H37.6718L39.3637 14.7948C39.3789 15.1398 39.3215 15.4841 39.1951 15.8055C39.0688 16.1268 38.8764 16.4181 38.6303 16.6604C38.0696 17.1982 37.3204 17.4946 36.5435 17.486Z" fill="#FFD55D"/>
<path d="M37.6717 5.84412H2.74609L3.44655 1.64432C3.5221 1.19127 3.75593 0.779713 4.10642 0.482867C4.45692 0.186021 4.90135 0.0231369 5.36066 0.0231934H35.06C35.5193 0.0231369 35.9638 0.186021 36.3143 0.482867C36.6648 0.779713 36.8986 1.19127 36.9741 1.64432L37.6717 5.84412Z" fill="#1D2E69"/>
<path d="M8.9496 5.84412L8.2831 16.5255C8.24471 17.1465 8.33381 17.7688 8.54491 18.354C8.75601 18.9393 9.08465 19.4751 9.5106 19.9286C9.93655 20.3821 10.4508 20.7436 11.0217 20.9909C11.5926 21.2382 12.2081 21.3661 12.8302 21.3666C13.5497 21.3668 14.2589 21.1965 14.8998 20.8695C15.5406 20.5425 16.0948 20.0682 16.5168 19.4855L23.9375 19.4195C24.3574 20.0216 24.9168 20.5132 25.5679 20.8523C26.2189 21.1914 26.9424 21.3678 27.6765 21.3666C28.2987 21.3662 28.9143 21.2384 29.4853 20.9912C30.0563 20.744 30.5707 20.3825 30.9968 19.929C31.4228 19.4755 31.7515 18.9396 31.9627 18.3542C32.1739 17.7689 32.263 17.1466 32.2246 16.5255L31.5571 5.84412H8.9496Z" fill="#2458F0"/>
<path d="M29.1117 19.4263C28.6295 19.4356 28.1511 19.3404 27.7091 19.1474C27.2672 18.9543 26.8723 18.6678 26.5515 18.3077C26.3138 18.0408 26.0211 17.8285 25.6935 17.6854C25.3659 17.5424 25.0112 17.4721 24.6539 17.4792L15.7789 17.5452C15.4314 17.541 15.0869 17.61 14.7678 17.7477C14.4487 17.8854 14.1622 18.0888 13.9269 18.3446C13.6072 18.6952 13.216 18.9733 12.7797 19.1599C12.3433 19.3465 11.8721 19.4373 11.3977 19.4263C10.5633 19.4401 9.75313 19.1462 9.12169 18.6007C8.83886 18.3631 8.61575 18.0625 8.47033 17.7229C8.32491 17.3834 8.26124 17.0145 8.28444 16.6458L8.94221 5.84412H31.5682L32.2298 16.6468C32.2525 17.0156 32.1882 17.3846 32.0421 17.724C31.896 18.0633 31.6721 18.3637 31.3887 18.6007C30.757 19.1464 29.9464 19.4403 29.1117 19.4263Z" fill="#253D83"/>
<path d="M16.3285 5.84412L15.6571 16.5255C15.6187 17.1469 15.708 17.7696 15.9193 18.3551C16.1307 18.9407 16.4598 19.4768 16.8863 19.9304C17.3128 20.3839 17.8276 20.7453 18.3991 20.9923C18.9705 21.2394 19.5865 21.3667 20.2091 21.3666C20.8313 21.3662 21.4469 21.2384 22.0179 20.9912C22.5889 20.744 23.1033 20.3825 23.5293 19.929C23.9554 19.4755 24.2841 18.9395 24.4953 18.3542C24.7064 17.7689 24.7956 17.1466 24.7572 16.5255L24.0897 5.84412H16.3285Z" fill="#FFC239"/>
<path d="M30.8823 0.0231934H9.53888C7.93148 0.0231934 6.62842 1.32625 6.62842 2.93366C6.62842 4.54106 7.93148 5.84412 9.53888 5.84412H30.8823C32.4897 5.84412 33.7928 4.54106 33.7928 2.93366C33.7928 1.32625 32.4897 0.0231934 30.8823 0.0231934Z" fill="#253D83"/>
<path d="M16.3281 5.84412H24.0894V13.6054C24.0894 14.6346 23.6805 15.6216 22.9528 16.3494C22.225 17.0771 21.2379 17.486 20.2087 17.486C19.1795 17.486 18.1925 17.0771 17.4647 16.3494C16.737 15.6216 16.3281 14.6346 16.3281 13.6054V5.84412Z" fill="#FFD55D"/>
<path d="M37.4435 10.1351V7.11015C37.4435 6.89634 37.3586 6.69128 37.2074 6.54008C37.0562 6.38889 36.8511 6.30396 36.6373 6.30396H33.5416C33.4357 6.30396 33.3308 6.32481 33.233 6.36532C33.1352 6.40584 33.0463 6.46522 32.9715 6.54008C32.8966 6.61495 32.8372 6.70382 32.7967 6.80163C32.7562 6.89945 32.7354 7.00428 32.7354 7.11015V7.18292C32.7352 7.37544 32.804 7.56164 32.9294 7.70777L36.0251 10.66C36.1009 10.7482 36.1948 10.8191 36.3004 10.8676C36.4061 10.9162 36.521 10.9413 36.6373 10.9413C36.8511 10.9413 37.0562 10.8564 37.2074 10.7052C37.3586 10.554 37.4435 10.3489 37.4435 10.1351Z" fill="#FFE69E"/>
<path d="M23.6803 10.1351V7.11015C23.6803 6.89634 23.5954 6.69128 23.4442 6.54008C23.293 6.38889 23.0879 6.30396 22.8741 6.30396H19.7784C19.5645 6.30396 19.3595 6.38889 19.2083 6.54008C19.0571 6.69128 18.9722 6.89634 18.9722 7.11015V7.18292C18.972 7.37544 19.0409 7.56164 19.1662 7.70777L22.262 10.66C22.3377 10.7482 22.4316 10.8191 22.5373 10.8676C22.6429 10.9162 22.7578 10.9413 22.8741 10.9413C23.0879 10.9413 23.293 10.8564 23.4442 10.7052C23.5954 10.554 23.6803 10.3489 23.6803 10.1351Z" fill="#FFE69E"/>
<path d="M3.0918 10.1351V7.11015C3.0918 6.89634 3.17674 6.69128 3.32793 6.54008C3.47912 6.38889 3.68418 6.30396 3.898 6.30396H6.99376C7.20767 6.30395 7.41283 6.38886 7.56417 6.54003C7.71552 6.69119 7.80067 6.89625 7.80093 7.11015V7.18292C7.80151 7.37551 7.73262 7.56186 7.6069 7.70777L4.51016 10.66C4.43445 10.7482 4.34054 10.8191 4.23488 10.8676C4.12921 10.9162 4.01429 10.9413 3.898 10.9413C3.68418 10.9413 3.47912 10.8564 3.32793 10.7052C3.17674 10.554 3.0918 10.3489 3.0918 10.1351Z" fill="#FFE69E"/>
<path d="M20.2175 47.5608H10.516C9.44439 47.5608 8.57568 48.4295 8.57568 49.5011V52.4116C8.57568 53.4832 9.44439 54.3519 10.516 54.3519H20.2175C21.2891 54.3519 22.1579 53.4832 22.1579 52.4116V49.5011C22.1579 48.4295 21.2891 47.5608 20.2175 47.5608Z" fill="#1CB15F"/>
<path d="M20.2162 47.5608H11.3878C11.1562 47.5608 10.9341 47.6528 10.7704 47.8165C10.6066 47.9803 10.5146 48.2024 10.5146 48.4339V49.5254C10.5146 51.1184 11.8079 53.3817 13.4038 53.3817H20.7119C21.0951 53.3817 21.4625 53.2295 21.7334 52.9586C22.0043 52.6877 22.1565 52.3203 22.1565 51.9372V49.5011C22.1565 48.9865 21.9521 48.493 21.5882 48.1291C21.2243 47.7652 20.7308 47.5608 20.2162 47.5608Z" fill="#27D674"/>
<path d="M17.7919 47.5608H13.9113C13.1076 47.5608 12.4561 48.2123 12.4561 49.016C12.4561 49.8197 13.1076 50.4713 13.9113 50.4713H17.7919C18.5956 50.4713 19.2471 49.8197 19.2471 49.016C19.2471 48.2123 18.5956 47.5608 17.7919 47.5608Z" fill="#7DE6AC"/>
<path d="M15.3659 43.6801C15.3659 43.6801 9.54492 34.9487 9.54492 31.0681C9.54492 29.5243 10.1582 28.0437 11.2498 26.9521C12.3415 25.8605 13.822 25.2472 15.3659 25.2472C16.9097 25.2472 18.3902 25.8605 19.4819 26.9521C20.5735 28.0437 21.1868 29.5243 21.1868 31.0681C21.1868 34.9487 15.3659 43.6801 15.3659 43.6801Z" fill="#2458F0"/>
<path d="M15.3666 33.0084C16.4382 33.0084 17.3069 32.1397 17.3069 31.0681C17.3069 29.9965 16.4382 29.1278 15.3666 29.1278C14.295 29.1278 13.4263 29.9965 13.4263 31.0681C13.4263 32.1397 14.295 33.0084 15.3666 33.0084Z" fill="#F6F8FF"/>
<path d="M16.857 25.4471C15.9955 25.215 15.092 25.1847 14.2168 25.3585C13.3417 25.5324 12.5184 25.9057 11.811 26.4495C11.1036 26.9933 10.5311 27.693 10.1381 28.494C9.74511 29.295 9.54212 30.1759 9.54495 31.0682C9.54495 34.9488 15.3659 43.6802 15.3659 43.6802C15.3659 43.6802 15.7423 43.1146 16.3011 42.2124C14.6276 39.4959 11.5231 34.0805 11.5231 31.2438C11.5241 29.785 12.0728 28.3797 13.0606 27.3062C14.0484 26.2326 15.4033 25.5692 16.857 25.4471Z" fill="#253D83"/>
<path d="M27.0081 58.2325H46.4112C46.947 58.2325 47.3813 57.7982 47.3813 57.2624V43.6802C47.3813 43.1444 46.947 42.7101 46.4112 42.7101H27.0081C26.4723 42.7101 26.0379 43.1444 26.0379 43.6802V57.2624C26.0379 57.7982 26.4723 58.2325 27.0081 58.2325Z" fill="#FFC239"/>
<path d="M38.9345 56.2922H27.7574C27.3014 56.2922 26.8642 56.1111 26.5418 55.7887C26.2194 55.4663 26.0382 55.0291 26.0382 54.5731V43.6802C26.0382 43.4229 26.1405 43.1762 26.3224 42.9942C26.5043 42.8123 26.7511 42.7101 27.0084 42.7101H42.4571C42.9913 42.7101 43.5036 42.9223 43.8813 43.3C44.259 43.6777 44.4712 44.1899 44.4712 44.7241V50.7556C44.4712 52.224 43.8879 53.6323 42.8495 54.6706C41.8112 55.7089 40.4029 56.2922 38.9345 56.2922Z" fill="#FFD55D"/>
<path d="M32.8286 42.71H40.5899V48.5309H32.8286V42.71Z" fill="#F4AC1C"/>
<path d="M35.4857 47.5608H32.8285V42.71H38.6494V44.3971C38.6494 44.8126 38.5676 45.224 38.4086 45.6078C38.2496 45.9916 38.0166 46.3404 37.7228 46.6342C37.429 46.9279 37.0803 47.161 36.6964 47.32C36.3126 47.479 35.9012 47.5608 35.4857 47.5608Z" fill="#FFC239"/>
<path d="M26.5244 47.9003V44.2865C26.5247 44.025 26.6287 43.7742 26.8137 43.5894C26.9987 43.4046 27.2496 43.3008 27.5111 43.3008H31.2947C31.4242 43.3007 31.5525 43.3261 31.6722 43.3755C31.7919 43.425 31.9006 43.4976 31.9923 43.5891C32.0839 43.6807 32.1566 43.7894 32.2062 43.909C32.2558 44.0287 32.2813 44.1569 32.2813 44.2865V44.3757C32.2812 44.6113 32.1969 44.8391 32.0436 45.018L28.26 48.5425C28.1674 48.6505 28.0525 48.7373 27.9232 48.7967C27.794 48.8561 27.6534 48.8869 27.5111 48.8869C27.2494 48.8869 26.9984 48.783 26.8134 48.5979C26.6284 48.4129 26.5244 48.162 26.5244 47.9003Z" fill="#FFE69E"/>
<path d="M27.0081 42.71H46.4112C46.947 42.71 47.3813 42.2756 47.3813 41.7398V28.1576C47.3813 27.6218 46.947 27.1875 46.4112 27.1875H27.0081C26.4723 27.1875 26.0379 27.6218 26.0379 28.1576V41.7398C26.0379 42.2756 26.4723 42.71 27.0081 42.71Z" fill="#FFC239"/>
<path d="M38.9345 40.7698H27.7574C27.3014 40.7698 26.8642 40.5887 26.5418 40.2663C26.2194 39.9439 26.0382 39.5066 26.0382 39.0507V28.1578C26.0382 27.9005 26.1405 27.6537 26.3224 27.4718C26.5043 27.2898 26.7511 27.1876 27.0084 27.1876H42.4571C42.9913 27.1876 43.5036 27.3998 43.8813 27.7775C44.259 28.1552 44.4712 28.6675 44.4712 29.2016V35.2331C44.4712 35.9602 44.328 36.6802 44.0497 37.3519C43.7715 38.0236 43.3637 38.634 42.8495 39.1481C42.3354 39.6622 41.7251 40.0701 41.0533 40.3483C40.3816 40.6266 39.6616 40.7698 38.9345 40.7698Z" fill="#FFD55D"/>
<path d="M32.8286 27.1875H40.5899V33.0084H32.8286V27.1875Z" fill="#F4AC1C"/>
<path d="M35.4857 32.0383H32.8285V27.1876H38.6494V28.8747C38.6494 29.7137 38.3161 30.5184 37.7228 31.1117C37.1295 31.705 36.3248 32.0383 35.4857 32.0383Z" fill="#FFC239"/>
<path d="M26.5244 32.3778V28.764C26.5247 28.5025 26.6287 28.2518 26.8137 28.067C26.9987 27.8821 27.2496 27.7783 27.5111 27.7783H31.2947C31.4242 27.7782 31.5525 27.8036 31.6722 27.8531C31.7919 27.9026 31.9006 27.9751 31.9923 28.0667C32.0839 28.1582 32.1566 28.2669 32.2062 28.3866C32.2558 28.5062 32.2813 28.6345 32.2813 28.764V28.8533C32.2812 29.0888 32.1969 29.3166 32.0436 29.4955L28.26 33.0201C28.1674 33.1281 28.0525 33.2148 27.9232 33.2742C27.794 33.3337 27.6534 33.3645 27.5111 33.3645C27.2494 33.3645 26.9984 33.2605 26.8134 33.0755C26.6284 32.8905 26.5244 32.6395 26.5244 32.3778Z" fill="#FFE69E"/>
<path d="M50.2934 32.0384C55.1156 32.0384 59.0248 28.1292 59.0248 23.307C59.0248 18.4847 55.1156 14.5756 50.2934 14.5756C45.4712 14.5756 41.562 18.4847 41.562 23.307C41.562 28.1292 45.4712 32.0384 50.2934 32.0384Z" fill="#1CB15F"/>
<path d="M50.5299 25.4791C54.2805 25.4791 57.3209 23.3074 57.3209 20.6284C57.3209 17.9494 54.2805 15.7776 50.5299 15.7776C46.7792 15.7776 43.7388 17.9494 43.7388 20.6284C43.7388 23.3074 46.7792 25.4791 50.5299 25.4791Z" fill="#27D674"/>
<path d="M49.3218 28.1577C49.0645 28.1577 48.8178 28.0554 48.6359 27.8735L45.7255 24.963C45.5487 24.78 45.451 24.535 45.4532 24.2806C45.4554 24.0262 45.5574 23.7829 45.7373 23.603C45.9172 23.4232 46.1605 23.3211 46.4148 23.3189C46.6692 23.3167 46.9143 23.4145 47.0973 23.5912L49.2665 25.7605L54.4083 19.7649C54.5787 19.5806 54.8138 19.4694 55.0643 19.4548C55.3149 19.4401 55.5613 19.5232 55.752 19.6864C55.9426 19.8497 56.0625 20.0804 56.0866 20.3302C56.1107 20.5801 56.037 20.8295 55.881 21.0261L50.0601 27.8172C49.9731 27.9186 49.866 28.001 49.7456 28.0591C49.6253 28.1172 49.4942 28.1498 49.3606 28.1548L49.3218 28.1577Z" fill="white"/>
</svg>
