<svg width="32" height="32" viewBox="0 0 32 32" fill="none" xmlns="http://www.w3.org/2000/svg">
<circle cx="16" cy="16" r="16" fill="#EFEFEF"/>
<path d="M22.2878 14.821H17.1791V9.71227C17.1791 9.06218 16.6502 8.53333 16.0001 8.53333C15.35 8.53333 14.8212 9.06218 14.8212 9.71227V14.821H9.71239C9.0623 14.821 8.53345 15.3499 8.53345 16C8.53345 16.6501 9.0623 17.1789 9.71239 17.1789H14.8212V22.2877C14.8212 22.9378 15.35 23.4667 16.0001 23.4667C16.6502 23.4667 17.1791 22.9378 17.1791 22.2877V17.1789H22.2878C22.9379 17.1789 23.4668 16.6501 23.4668 16C23.4668 15.3499 22.9379 14.821 22.2878 14.821Z" fill="#1D1D1B"/>
</svg>
