<svg width="21" height="21" viewBox="0 0 21 21" fill="none" xmlns="http://www.w3.org/2000/svg">
<path d="M19.4 18.0746L16.3111 15.0106C17.5101 13.5156 18.0908 11.618 17.9337 9.70798C17.7766 7.798 16.8936 6.02079 15.4664 4.7418C14.0392 3.46281 12.1762 2.77924 10.2605 2.83166C8.34478 2.88409 6.52195 3.66851 5.16682 5.02363C3.81169 6.37876 3.02727 8.20159 2.97485 10.1173C2.92243 12.033 3.60599 13.896 4.88499 15.3232C6.16398 16.7504 7.94118 17.6334 9.85117 17.7905C11.7612 17.9476 13.6588 17.3669 15.1538 16.1679L18.2177 19.2319C18.2951 19.3099 18.3872 19.3719 18.4887 19.4141C18.5902 19.4564 18.699 19.4782 18.8089 19.4782C18.9188 19.4782 19.0276 19.4564 19.1291 19.4141C19.2306 19.3719 19.3226 19.3099 19.4 19.2319C19.5501 19.0766 19.634 18.8691 19.634 18.6532C19.634 18.4373 19.5501 18.2298 19.4 18.0746ZM10.4829 16.1679C9.33016 16.1679 8.20333 15.8261 7.24488 15.1857C6.28644 14.5453 5.53942 13.635 5.0983 12.57C4.65717 11.5051 4.54176 10.3332 4.76664 9.20265C4.99152 8.07209 5.54661 7.0336 6.3617 6.21851C7.17679 5.40342 8.21528 4.84833 9.34584 4.62345C10.4764 4.39857 11.6483 4.51399 12.7132 4.95511C13.7782 5.39623 14.6884 6.14325 15.3289 7.1017C15.9693 8.06014 16.3111 9.18697 16.3111 10.3397C16.3111 11.8854 15.697 13.3678 14.604 14.4609C13.511 15.5539 12.0286 16.1679 10.4829 16.1679Z" fill="#898989"/>
</svg>
